<?xml version="1.0" encoding="UTF-8" standalone="no"?>
<!-- Created with Inkscape (http://www.inkscape.org/) -->

<svg
   version="1.1"
   id="svg1"
   width="180"
   height="180"
   viewBox="0 0 180 180"
   sodipodi:docname="logo.svg"
   inkscape:version="1.3.2 (091e20e, 2023-11-25, custom)"
   xmlns:inkscape="http://www.inkscape.org/namespaces/inkscape"
   xmlns:sodipodi="http://sodipodi.sourceforge.net/DTD/sodipodi-0.dtd"
   xmlns="http://www.w3.org/2000/svg"
   xmlns:svg="http://www.w3.org/2000/svg">
  <defs
     id="defs1">
    <clipPath
       clipPathUnits="userSpaceOnUse"
       id="clipPath5">
      <path
         d="M 0,500 H 500 V 0 H 0 Z"
         transform="translate(-220.20511,-324.60691)"
         id="path5" />
    </clipPath>
    <clipPath
       clipPathUnits="userSpaceOnUse"
       id="clipPath7">
      <path
         d="M 0,500 H 500 V 0 H 0 Z"
         transform="translate(-324.09181,-309.56881)"
         id="path7" />
    </clipPath>
    <clipPath
       clipPathUnits="userSpaceOnUse"
       id="clipPath9">
      <path
         d="M 0,500 H 500 V 0 H 0 Z"
         transform="translate(-298.8223,-324.61041)"
         id="path9" />
    </clipPath>
  </defs>
  <sodipodi:namedview
     id="namedview1"
     pagecolor="#ffffff"
     bordercolor="#000000"
     borderopacity="0.25"
     inkscape:showpageshadow="2"
     inkscape:pageopacity="0.0"
     inkscape:pagecheckerboard="0"
     inkscape:deskcolor="#d1d1d1"
     inkscape:zoom="6.3166667"
     inkscape:cx="90"
     inkscape:cy="90"
     inkscape:window-width="2560"
     inkscape:window-height="1351"
     inkscape:window-x="1911"
     inkscape:window-y="-9"
     inkscape:window-maximized="1"
     inkscape:current-layer="g1" />
  <g
     inkscape:groupmode="layer"
     inkscape:label="Image"
     id="g1">
    <path
       id="path4"
       d="M 0,0 V -9.2 H 76.276 V -20.73 H 21.981 v -9.271 h 43.863 v -26.242 c 0,-3.76 -3.046,-6.805 -6.799,-6.805 H 10.444 v 11.537 h 43.869 v 9.979 H 10.444 V -20.73 H 0 v -42.318 h -4.732 c -3.76,0 -6.805,3.045 -6.805,6.805 V 4.732 c 0,3.753 3.045,6.798 6.805,6.798 h 63.777 c 3.753,0 6.799,-3.045 6.799,-6.798 V 0 Z"
       style="fill:#3c8dbc;fill-opacity:1;fill-rule:nonzero;stroke:none"
       transform="matrix(1.3333333,0,0,-1.3333333,38.232142,42.903097)"
       clip-path="url(#clipPath5)" />
    <path
       id="path6"
       d="M 0,0 -17.871,13.842 V 5.838 h -75.572 v -32.332 h 43.87 v -9.979 h -43.87 V -48.01 h 48.601 c 3.753,0 6.799,3.045 6.799,6.805 v 26.242 h -43.862 v 9.271 h 64.034 v -8.15 z"
       style="fill:#5a778a;fill-opacity:1;fill-rule:nonzero;stroke:none"
       transform="matrix(1.3333333,0,0,-1.3333333,176.74774,62.953897)"
       clip-path="url(#clipPath7)" />
    <path
       id="path8"
       d="m 0,0 v 5.647 c 0,9.865 -8.021,17.885 -17.878,17.885 h -67.158 c -9.858,0 -17.878,-8.02 -17.878,-17.885 v -62.819 c 0,-9.865 8.02,-17.885 17.878,-17.885 h 67.158 c 9.857,0 17.878,8.02 17.878,17.885 v 28.286 h -4.582 v -28.286 c 0,-7.334 -5.969,-13.296 -13.296,-13.296 h -67.158 c -7.327,0 -13.296,5.962 -13.296,13.296 V 5.647 c 0,7.334 5.969,13.296 13.296,13.296 h 67.158 c 7.327,0 13.296,-5.962 13.296,-13.296 V 0 Z"
       style="fill:#5a778a;fill-opacity:1;fill-rule:nonzero;stroke:none"
       transform="matrix(1.3333333,0,0,-1.3333333,143.05507,42.898427)"
       clip-path="url(#clipPath9)" />
    <text
       xml:space="preserve"
       style="font-size:17.6214px;font-family:'Franklin Gothic Demi';-inkscape-font-specification:'Franklin Gothic Demi';text-align:center;text-anchor:middle;fill:#5a778a;fill-opacity:1;stroke-width:1.46844"
       x="73.992409"
       y="164.06662"
       id="text9"><tspan
         sodipodi:role="line"
         id="tspan9"
         x="73.992409"
         y="164.06662"
         style="stroke-width:1.46844">FS<tspan
   style="fill:#3c8dbc;fill-opacity:1;stroke-width:1.46844"
   id="tspan10">FRAMEWORK</tspan></tspan></text>
  </g>
</svg>
